<?xml version="1.0" standalone="no"?>
<!DOCTYPE svg PUBLIC "-//W3C//DTD SVG 20010904//EN" "http://www.w3.org/TR/2001/REC-SVG-20010904/DTD/svg10.dtd">
<svg xmlns="http://www.w3.org/2000/svg" version="1.0" width="980" height="980" viewBox="0 0 980.000000 980.000000" preserveAspectRatio="xMidYMid meet">

<g transform="translate(0.000000,980.000000) scale(0.100000,-0.100000)" fill="#000000" stroke="none">
<path d="M2692 8978 l3 -203 448 -3 447 -2 0 205 0 205 -450 0 -450 0 2 -202z"/>
<path d="M2692 7813 l3 -708 448 -3 447 -2 0 710 0 710 -450 0 -450 0 2 -707z"/>
<path d="M2690 6685 l0 -165 450 0 450 0 0 165 0 165 -450 0 -450 0 0 -165z"/>
<path d="M2412 6250 c-175 -46 -321 -164 -400 -320 -78 -157 -72 42 -72 -2342 l0 -2138 1205 0 1205 0 -2 2153 -3 2152 -22 62 c-68 200 -207 344 -403 419 l-75 29 -680 2 c-644 2 -684 1 -753 -17z m1454 -1182 l34 -38 0 -1170 0 -1170 -34 -38 -34 -37 -671 -3 c-741 -3 -722 -4 -761 60 -20 33 -20 43 -18 1199 3 1151 3 1167 23 1189 45 50 33 50 753 47 l674 -2 34 -37z"/>
<path d="M2630 3860 l0 -1000 515 0 515 0 0 1000 0 1000 -515 0 -515 0 0 -1000z"/>
<path d="M6400 5733 c0 -4 -25 -114 -55 -243 -30 -129 -86 -367 -123 -528 -38 -161 -66 -294 -63 -296 3 -2 74 1 156 6 222 13 530 -3 740 -38 146 -24 273 -59 580 -159 353 -114 664 -209 670 -203 2 2 -14 80 -36 173 -21 94 -69 296 -104 450 -36 154 -94 406 -130 559 -36 154 -65 281 -65 283 0 2 -353 3 -785 3 -432 0 -785 -3 -785 -7z"/>
<path d="M6315 4424 c-22 -2 -81 -6 -131 -10 l-91 -6 -27 -118 c-40 -169 -47 -241 -35 -339 23 -193 108 -350 281 -517 92 -90 162 -140 280 -203 439 -233 951 -194 1352 102 230 170 383 411 398 626 l3 44 -110 29 c-144 37 -245 68 -635 195 -372 121 -460 144 -655 173 -134 20 -523 35 -630 24z"/>
<path d="M7060 2086 l0 -745 115 -3 c64 -2 120 -2 125 0 6 2 10 271 10 748 l0 744 -125 0 -125 0 0 -744z"/>
<path d="M1499 1185 c-44 -24 -49 -59 -49 -321 l0 -244 1690 0 1690 0 0 261 0 261 -29 29 -29 29 -1624 0 c-1391 -1 -1627 -3 -1649 -15z"/>
<path d="M6878 1079 c-297 -26 -573 -95 -701 -176 -53 -34 -57 -51 -18 -84 75 -62 296 -131 553 -171 127 -19 181 -22 473 -22 292 0 346 3 473 22 311 49 577 144 577 207 0 39 -135 105 -313 154 -100 27 -292 58 -437 71 -136 11 -477 11 -607 -1z"/>
</g>
</svg>